<svg width="15" height="17" viewBox="0 0 15 17" fill="none" xmlns="http://www.w3.org/2000/svg">
<path d="M13.4841 11.1183L13.4841 11.2183L13.576 11.1789L14.3986 10.826L14.3986 11.0537L13.3474 11.5047L1.91563 16.4083L0.864363 16.8593L0.864363 16.6315L1.687 16.2786L1.7789 16.2392L1.7789 16.1392L1.7789 15.4976C1.7789 15.4611 1.79106 15.4306 1.80979 15.4051C1.82976 15.3778 1.86414 15.3471 1.91563 15.325L2.3729 15.1289L2.4648 15.0895L2.4648 14.9895L2.4648 9.85637L2.4648 9.75637L2.3729 9.7958L1.687 10.09C1.6355 10.1121 1.60112 10.1109 1.58115 10.1008C1.56243 10.0913 1.55027 10.0712 1.55027 10.0348L1.55027 9.24343C1.55027 9.20893 1.56011 9.17695 1.59552 9.13968L1.7327 8.99528L1.7789 8.94665L1.7789 8.93799L7.54379 2.45782L7.54411 2.45746C7.57785 2.41931 7.60655 2.39851 7.63149 2.38781C7.65644 2.37711 7.68513 2.3733 7.71887 2.3825L7.71943 2.38264L9.63996 2.88489L9.7811 2.9218L9.7811 2.73991L9.7811 1.79884C9.7811 1.76238 9.79326 1.73191 9.81199 1.70636C9.83196 1.67911 9.86634 1.6484 9.91784 1.62631L11.7469 0.84173C11.7984 0.819641 11.8328 0.820857 11.8528 0.830973C11.8715 0.840457 11.8836 0.860501 11.8836 0.896958L11.8836 3.44212L11.8836 3.49715L11.9264 3.50827L13.664 3.96064L13.6639 3.96074L13.6675 3.96143C13.7029 3.96832 13.7127 3.99186 13.7127 4.02636L13.7127 4.81772C13.7127 4.85417 13.7006 4.88465 13.6818 4.9102C13.6619 4.93745 13.6275 4.96816 13.576 4.99025L12.8901 5.28446L12.7982 5.32389L12.7982 5.42389L12.7982 10.557L12.7982 10.657L12.8901 10.6176L13.3474 10.4214C13.3988 10.3993 13.4332 10.4005 13.4532 10.4107C13.4719 10.4201 13.4841 10.4402 13.4841 10.4766L13.4841 11.1183ZM11.6102 1.22814L11.6102 1.12814L11.5183 1.16756L10.1465 1.75599L10.0546 1.79542L10.0546 1.89542L10.0546 2.1093L10.0546 2.2093L10.1465 2.16987L11.5183 1.58144L11.6102 1.54202L11.6102 1.44202L11.6102 1.22814ZM10.1465 2.39763L10.0546 2.43705L10.0546 2.53705L10.0546 2.94342L10.0546 2.99793L10.0967 3.00941L11.4685 3.38343L11.6102 3.42207L11.6102 3.2386L11.6102 1.86978L11.6102 1.76978L11.5183 1.8092L10.1465 2.39763ZM1.91563 9.13642L1.82373 9.17585L1.82373 9.27585L1.82373 9.70382L1.82373 9.80382L1.91563 9.7644L2.60154 9.47018L12.6614 5.15499L13.3474 4.86077L13.4393 4.82135L13.4393 4.72135L13.4393 4.25082L13.4393 4.19608L13.3969 4.18476L7.68101 2.65842L7.63152 2.6452L7.58201 2.70087L2.41487 8.51026L2.14987 8.80819L2.46436 8.67329L10.9691 5.02519L10.9691 5.25295L1.91563 9.13642ZM2.83017 9.59965L2.73827 9.63907L2.73827 9.73907L2.73827 14.8722L2.73827 14.9722L2.83017 14.9327L3.74471 14.5405L3.83661 14.501L3.83661 14.401L3.83661 11.4067L3.83661 11.3067L3.74471 11.3462L3.37934 11.5029L3.37934 11.2751L3.97334 11.0203L6.48832 9.94152L7.08232 9.68673L7.08232 9.91449L6.71696 10.0712L6.62505 10.1106L6.62505 10.2106L6.62505 13.2049L6.62505 13.3049L6.71696 13.2655L12.4328 10.8137L12.5247 10.7743L12.5247 10.6743L12.5247 5.54119L12.5247 5.44119L12.4328 5.48061L2.83017 9.59965ZM4.20198 11.15L4.11008 11.1894L4.11008 11.2894L4.11008 14.2837L4.11008 14.3837L4.20198 14.3443L6.25969 13.4617L6.35159 13.4222L6.35159 13.3222L6.35159 10.3279L6.35159 10.2279L6.25969 10.2674L4.20198 11.15ZM2.05237 16.0219L2.05237 16.1219L2.14427 16.0825L13.1187 11.375L13.2106 11.3356L13.2106 11.2356L13.2106 10.8078L13.2106 10.7078L13.1187 10.7472L12.6614 10.9434L6.48832 13.5913L3.97334 14.6701L2.60154 15.2586L2.14427 15.4547L2.05237 15.4941L2.05237 15.5941L2.05237 16.0219Z" fill="#434343" stroke="#434343" stroke-width="0.2"/>
</svg>
